<svg width="121" height="20" viewBox="0 0 121 20" fill="none" xmlns="http://www.w3.org/2000/svg">
<path d="M11.685 8.02402C11.058 5.49702 9.025 4.05302 6.099 4.05302C2.394 4.05302 0 6.48502 0 10.285C0 12.147 0.608 13.819 1.71 14.902C2.755 15.966 4.313 16.536 6.137 16.536C8.341 16.536 10.07 15.757 11.02 14.351C11.381 13.8 11.609 13.287 11.818 12.47L8.322 11.919C8.246 12.356 8.151 12.546 7.98 12.793C7.6 13.325 6.916 13.629 6.175 13.629C4.655 13.629 3.686 12.299 3.686 10.247C3.686 8.15702 4.598 6.94102 6.137 6.94102C6.821 6.94102 7.353 7.16902 7.733 7.60602C7.98 7.89102 8.094 8.15702 8.265 8.72702L11.685 8.02402Z" fill="#2F66F6"/>
<path d="M19.0537 16.536C22.8347 16.536 25.3427 14.028 25.3427 10.247C25.3427 6.48502 22.9107 4.07202 19.0727 4.07202C15.2347 4.07202 12.8027 6.48502 12.8027 10.285C12.8027 14.104 15.2347 16.536 19.0537 16.536ZM19.0917 6.92202C20.7067 6.92202 21.6757 8.17602 21.6757 10.304C21.6757 12.413 20.7257 13.648 19.0727 13.648C17.4197 13.648 16.4317 12.375 16.4317 10.266C16.4317 8.17602 17.4197 6.92202 19.0917 6.92202Z" fill="#2F66F6"/>
<path d="M26.9358 0.291016V3.14102H30.7928V0.291016H26.9358ZM26.8788 4.50902C26.9928 5.36402 27.0308 6.14302 27.0308 7.37802V13.23C27.0308 14.446 26.9928 15.168 26.8788 16.099H30.8498C30.7548 15.282 30.6978 14.256 30.6978 13.23V7.37802C30.6978 6.04802 30.7358 5.28802 30.8498 4.50902H26.8788Z" fill="#2F66F6"/>
<path d="M36.8049 16.099C36.6909 15.111 36.6529 14.313 36.6529 13.23V9.39202C37.4699 8.06202 38.4199 7.39702 39.4839 7.39702C40.0539 7.39702 40.4909 7.58702 40.7379 7.92902C40.9659 8.25202 41.0419 8.57502 41.0419 9.33502V13.23C41.0419 14.389 41.0039 15.187 40.8899 16.099H44.8419C44.7469 15.301 44.6899 14.351 44.6899 13.249V8.48002C44.6899 6.97902 44.3669 6.04802 43.6069 5.28802C42.9039 4.58502 41.8589 4.22402 40.5479 4.22402C38.9899 4.22402 37.8309 4.69902 36.6339 5.83902C36.6339 5.70602 36.6529 5.42102 36.6529 5.30702V4.50902H32.8719C32.9859 5.26902 33.0239 6.06702 33.0239 7.37802V13.23C33.0239 14.408 32.9859 15.206 32.8719 16.099H36.8049Z" fill="#2F66F6"/>
<path d="M50.7391 16.099C50.6251 15.168 50.5871 14.427 50.5871 13.23V9.39202C51.1191 8.10002 51.9931 7.35902 53.0191 7.35902C53.4751 7.35902 53.8551 7.53002 54.0641 7.83402C54.3111 8.15702 54.3871 8.51802 54.3871 9.31602V13.23C54.3871 14.446 54.3491 15.244 54.2351 16.099H58.1871C58.0731 15.187 58.0351 14.389 58.0351 13.249V9.37302C58.5101 8.10002 59.3841 7.34002 60.3531 7.34002C61.4361 7.34002 61.8541 7.89102 61.8541 9.31602V13.23C61.8541 14.522 61.8161 15.206 61.7021 16.099H65.6541C65.5401 15.206 65.5021 14.427 65.5021 13.249V8.53702C65.5021 5.66802 64.1151 4.18602 61.3981 4.18602C59.7451 4.18602 58.5861 4.68002 57.4081 5.83902C57.1611 5.36402 56.9711 5.13602 56.6291 4.88902C56.0021 4.43302 55.1851 4.20502 54.1971 4.20502C52.6961 4.20502 51.5371 4.69902 50.5681 5.76302C50.5681 5.72502 50.5681 5.68702 50.5681 5.66802C50.5681 5.61102 50.5681 5.57302 50.5681 5.57302C50.5871 5.38302 50.5871 5.38302 50.5871 5.30702V4.50902H46.8251C46.9391 5.25002 46.9771 5.93402 46.9771 7.37802V13.23C46.9771 14.427 46.9391 15.225 46.8251 16.099H50.7391Z" fill="#2F66F6"/>
<path d="M73.3819 16.536C77.1629 16.536 79.6709 14.028 79.6709 10.247C79.6709 6.48502 77.2389 4.07202 73.4009 4.07202C69.5629 4.07202 67.1309 6.48502 67.1309 10.285C67.1309 14.104 69.5629 16.536 73.3819 16.536ZM73.4199 6.92202C75.0349 6.92202 76.0039 8.17602 76.0039 10.304C76.0039 12.413 75.0539 13.648 73.4009 13.648C71.7479 13.648 70.7599 12.375 70.7599 10.266C70.7599 8.17602 71.7479 6.92202 73.4199 6.92202Z" fill="#2F66F6"/>
<path d="M85.1399 16.099C85.0259 15.111 84.9879 14.313 84.9879 13.23V9.39202C85.8049 8.06202 86.7549 7.39702 87.8189 7.39702C88.3889 7.39702 88.8259 7.58702 89.0729 7.92902C89.3009 8.25202 89.3769 8.57502 89.3769 9.33502V13.23C89.3769 14.389 89.3389 15.187 89.2249 16.099H93.1769C93.0819 15.301 93.0249 14.351 93.0249 13.249V8.48002C93.0249 6.97902 92.7019 6.04802 91.9419 5.28802C91.2389 4.58502 90.1939 4.22402 88.8829 4.22402C87.3249 4.22402 86.1659 4.69902 84.9689 5.83902C84.9689 5.70602 84.9879 5.42102 84.9879 5.30702V4.50902H81.2069C81.3209 5.26902 81.3589 6.06702 81.3589 7.37802V13.23C81.3589 14.408 81.3209 15.206 81.2069 16.099H85.1399Z" fill="#2F66F6"/>
<path d="M106.712 11.368C106.693 11.178 106.693 11.064 106.693 10.988C106.636 9.90502 106.56 9.10702 106.408 8.49902C105.743 5.66802 103.672 4.05302 100.708 4.05302C97.079 4.05302 94.666 6.54202 94.666 10.304C94.666 12.185 95.274 13.8 96.395 14.94C97.478 16.023 98.941 16.555 100.803 16.555C102.684 16.555 104.204 16.004 105.287 14.94C105.819 14.408 106.104 13.971 106.541 12.983L103.235 12.052C103.083 12.546 102.95 12.755 102.665 13.021C102.171 13.477 101.506 13.724 100.746 13.724C99.245 13.724 98.352 12.907 98.162 11.368H106.712ZM98.219 8.74602C98.542 7.49202 99.359 6.88402 100.708 6.88402C102.019 6.88402 102.836 7.53002 103.102 8.74602H98.219Z" fill="#2F66F6"/>
<path d="M112.06 15.073L111.661 15.89C111.376 16.46 110.844 16.783 110.122 16.783C109.628 16.783 109.267 16.688 108.64 16.365L108.222 19.386C109.267 19.614 109.989 19.709 110.825 19.709C112.991 19.709 114.359 18.892 115.119 17.106L119.47 7.05502C120.135 5.49702 120.135 5.49702 120.61 4.50902H116.487C116.373 5.17402 116.202 5.72502 115.67 7.03602L113.979 11.349L112.231 6.96002C111.832 5.93402 111.585 5.11702 111.49 4.50902H107.367C107.614 4.98402 107.69 5.15502 108.507 7.05502L112.06 15.073Z" fill="#2F66F6"/>
</svg>
